HIERARCHY
ROOT Hips
{
	OFFSET 0.00000 0.00000 0.00000
	CHANNELS 6 Xposition Yposition Zposition Yrotation Zrotation Xrotation 
	JOINT Lumbar
	{
		OFFSET 0 0 0
		CHANNELS 3 Zrotation Xrotation Yrotation
		JOINT Neck
		{
			OFFSET 0.00 0.2701 0.00
			CHANNELS 3 Zrotation Xrotation Yrotation
			End Site
			{
				OFFSET 0.00 0.1379 0.00
			}
		}
		JOINT RightShoulder
		{
			OFFSET 0.0119 0.2289 0.1181
			CHANNELS 3 Zrotation Xrotation Yrotation
			JOINT RightElbow
			{
				OFFSET 0.00 -0.1475 0.00
				CHANNELS 2 Zrotation Yrotation
				JOINT RightWrist
				{
					OFFSET 0.00 -0.1605 0.00
					CHANNELS 2 Zrotation Xrotation
					End Site
					{
						OFFSET 0.0040 -0.1068 0.0006
					}
				}
			}
		}
		JOINT LeftShoulder
		{
			OFFSET 0.0119 0.2289 -0.1181
			CHANNELS 3 Zrotation Xrotation Yrotation
			JOINT LeftElbow
			{
				OFFSET 0.00 -0.1475 0.00
				CHANNELS 2 Zrotation Yrotation
				JOINT LeftWrist
				{
					OFFSET 0.00 -0.1605 0.00
					CHANNELS 2 Zrotation Xrotation
					End Site
					{
						OFFSET 0.0040 -0.1068 -0.0006
					}
				}
			}
		}
	}
	JOINT RightHip
	{
		OFFSET 0.0316 -0.0424 0.0458
		CHANNELS 3 Zrotation Xrotation Yrotation
		JOINT RightKnee
		{
			OFFSET 0.00 -0.2438 0.00
			CHANNELS 1 Zrotation
			JOINT RightAnkle
			{
				OFFSET 0.00 -0.2449 0.00
				CHANNELS 3 Zrotation Xrotation Yrotation
				End Site
				{
					OFFSET 0.1237 -0.0542 0.0051
				}
			}
		}
	}
	JOINT LeftHip
	{
		OFFSET 0.0316 -0.0424 -0.0458
		CHANNELS 3 Zrotation Xrotation Yrotation
		JOINT LeftKnee
		{
			OFFSET 0.00 -0.2438 0.00
			CHANNELS 1 Zrotation
			JOINT LeftAnkle
			{
				OFFSET 0.00 -0.2449 0.00
				CHANNELS 3 Zrotation Xrotation Yrotation
				End Site
				{
					OFFSET 0.1237 -0.0542 -0.0051
				}
			}
		}
	}
}
MOTION
Frames: 28
Frame Time: 0.02
-0.00015 3e-05 -6e-05 177.42531 -40.28851 -2.70636 50.06019 1.43891 -2.04005 1.75307 0.57701 -0.91241 -19.19665 -8.71394 -9.17275 28.81938 90.98156 4.03854 1.86741 -22.04478 14.02511 -3.93792 46.28723 -103.63397 13.45709 -2.24213 43.43542 -0.68385 -15.11998 -19.03649 -6.19318 -1.44214 -2.94201 46.4199 4.169 10.08513 -24.96014 -6.23207 1.37904 2.90426
-0.00014 3e-05 -3e-05 177.38549 -40.30186 -2.71101 50.04749 1.45118 -2.03547 1.75364 0.5966 -0.9128 -19.13473 -8.68985 -9.07682 28.80971 90.92272 4.02578 1.86323 -22.14695 13.84557 -4.0887 46.28626 -103.53243 13.40121 -2.23542 43.468 -0.63567 -14.80415 -19.03932 -6.18874 -1.47369 -2.95493 46.43778 4.15436 10.01675 -24.96534 -6.23045 1.3868 2.90737
-0.00013 2e-05 -0 177.3457 -40.31517 -2.71567 50.0348 1.46346 -2.03082 1.75414 0.61621 -0.9132 -19.07296 -8.6658 -8.98118 28.79998 90.86402 4.01306 1.85905 -22.24905 13.6665 -4.2394 46.28582 -103.4311 13.34553 -2.22871 43.50049 -0.58764 -14.48934 -19.04215 -6.18432 -1.50515 -2.96781 46.4556 4.13974 9.94845 -24.97052 -6.22883 1.39457 2.91048
-0.00012 2e-05 2e-05 177.30599 -40.32849 -2.7203 50.02213 1.4757 -2.02624 1.75471 0.63575 -0.9136 -19.01122 -8.64177 -8.88554 28.79033 90.80535 4.00033 1.85488 -22.3509 13.48746 -4.38976 46.28486 -103.32986 13.28983 -2.22202 43.53298 -0.53961 -14.17448 -19.04497 -6.1799 -1.53661 -2.98068 46.47343 4.12514 9.88026 -24.97571 -6.22721 1.40232 2.91357
-0.00011 2e-05 5e-05 177.26628 -40.34184 -2.72492 50.00947 1.48792 -2.02174 1.75537 0.65524 -0.91399 -18.94934 -8.61771 -8.7896 28.78077 90.74655 3.98756 1.85072 -22.45282 13.30807 -4.54013 46.28336 -103.22844 13.23391 -2.21536 43.56555 -0.49143 -13.85858 -19.04779 -6.17547 -1.56818 -2.99361 46.49131 4.11052 9.81203 -24.98091 -6.22559 1.41006 2.91667
-0.0001 2e-05 7e-05 177.22632 -40.35506 -2.72966 49.99673 1.50034 -2.01676 1.75549 0.6751 -0.91439 -18.88781 -8.59368 -8.69462 28.77066 90.68805 3.97495 1.8465 -22.55538 13.12975 -4.69153 46.28526 -103.12728 13.17874 -2.20852 43.59787 -0.44371 -13.54609 -19.05062 -6.17108 -1.59939 -3.00637 46.509 4.09594 9.7436 -24.98606 -6.22396 1.4179 2.91981
-9e-05 1e-05 0.0001 177.18694 -40.36853 -2.73415 49.98415 1.51231 -2.0128 1.75676 0.6942 -0.91478 -18.82564 -8.5696 -8.59779 28.76169 90.62905 3.96203 1.8424 -22.65624 12.94922 -4.84055 46.2798 -103.02576 13.12213 -2.20205 43.63067 -0.39512 -13.2271 -19.05344 -6.1666 -1.63129 -3.01945 46.52706 4.08127 9.67562 -24.9913 -6.22236 1.42552 2.92284
-8e-05 1e-05 0.00013 177.14696 -40.38178 -2.73887 49.97143 1.52475 -2.00783 1.75686 0.71401 -0.91518 -18.7641 -8.54561 -8.50269 28.75162 90.57046 3.94937 1.83819 -22.7592 12.77118 -4.992 46.28207 -102.92445 13.06685 -2.19522 43.66303 -0.34733 -12.91406 -19.05626 -6.16221 -1.66254 -3.03223 46.54477 4.0667 9.60728 -24.99646 -6.22073 1.43334 2.92598
-7e-05 1e-05 0.00015 177.10649 -40.39475 -2.74387 49.95848 1.53757 -2.00189 1.75597 0.73468 -0.9156 -18.70311 -8.52151 -8.40957 28.74039 90.51252 3.93713 1.83385 -22.86269 12.59428 -5.14564 46.29016 -102.82383 13.01314 -2.18804 43.69486 -0.3005 -12.60835 -19.05911 -6.15792 -1.69306 -3.04468 46.56212 4.05217 9.53825 -25.00153 -6.21906 1.44143 2.92924
-6e-05 1e-05 0.00018 177.06955 -40.40929 -2.74728 49.94669 1.54763 -2.00232 1.76208 0.75035 -0.91589 -18.63828 -8.4974 -8.30468 28.73637 90.45126 3.92279 1.83028 -22.95701 12.40512 -5.28432 46.25388 -102.72054 12.95023 -2.18314 43.72973 -0.24813 -12.26064 -19.06187 -6.15301 -1.72796 -3.05912 46.58172 4.03719 9.47243 -25.00715 -6.21763 1.44804 2.93179
-5e-05 1e-05 0.0002 177.02471 -40.42052 -2.75402 49.93256 1.56388 -1.98879 1.75262 0.77659 -0.91648 -18.58199 -8.47374 -8.22487 28.71684 90.39675 3.91268 1.82505 -23.07456 12.24549 -5.45601 46.3181 -102.62208 12.90683 -2.17324 43.75822 -0.20744 -12.00144 -19.06479 -6.14942 -1.75353 -3.06933 46.59649 4.02327 9.40033 -25.01158 -6.21569 1.45775 2.93583
-6e-05 1e-05 0.0002 176.96154 -40.42249 -2.77009 49.91112 1.59449 -1.94098 1.70646 0.83175 -0.91784 -18.54583 -8.44795 -8.2127 28.65646 90.36314 3.91614 1.81569 -23.22606 12.13881 -5.70762 46.60555 -102.54385 12.91716 -2.15115 43.76871 -0.19919 -11.98854 -19.06834 -6.14935 -1.754 -3.06805 46.59835 4.01155 9.30677 -25.01306 -6.21221 1.47623 2.94401
-7e-05 3e-05 0.00017 176.88979 -40.42116 -2.78947 49.88748 1.6319 -1.87841 1.64343 0.89744 -0.91955 -18.5189 -8.42333 -8.22601 28.58001 90.33591 3.92356 1.80458 -23.40724 12.06783 -5.99434 47.00442 -102.46938 12.94735 -2.12373 43.77288 -0.20262 -12.064 -19.07203 -6.15062 -1.74502 -3.06251 46.5953 4.00103 9.20767 -25.0133 -6.20826 1.49778 2.95366
-8e-05 4e-05 0.00016 176.81977 -40.42148 -2.80724 49.86543 1.66779 -1.81998 1.58433 0.95849 -0.92109 -18.48981 -8.40025 -8.22837 28.50999 90.30414 3.92777 1.79399 -23.59326 11.99783 -6.27201 47.38567 -102.38835 12.96791 -2.09777 43.78028 -0.20043 -12.09664 -19.07553 -6.15136 -1.74003 -3.05884 46.59429 3.99045 9.1139 -25.01392 -6.20463 1.51774 2.96259
-8e-05 5e-05 0.00015 176.75895 -40.42123 -2.8255 49.84091 1.69668 -1.77234 1.54145 1.01933 -0.92251 -18.45191 -8.36806 -8.22786 28.4443 90.27914 3.93761 1.78455 -23.6986 11.85185 -6.5207 47.62467 -102.32692 12.98976 -2.07598 43.78623 -0.19952 -12.14022 -19.07951 -6.15179 -1.73626 -3.05543 46.5941 3.97785 9.00836 -25.01534 -6.20055 1.53851 2.97174
-9e-05 6e-05 0.00012 176.67687 -40.42131 -2.84345 49.821 1.74225 -1.69876 1.46018 1.0826 -0.92445 -18.43484 -8.35558 -8.23968 28.36494 90.24177 3.93707 1.77231 -23.98325 11.87685 -6.83794 48.19024 -102.22666 13.01526 -2.04411 43.79361 -0.19883 -12.1826 -19.08259 -6.15316 -1.72778 -3.05048 46.59098 3.96969 8.92586 -25.01477 -6.19729 1.55836 2.9808
-0.0001 0.00011 1e-05 176.53894 -40.42374 -2.8604 49.81436 1.82807 -1.55689 1.28255 1.15437 -0.92624 -18.47075 -8.39341 -8.27628 28.25898 90.16761 3.90396 1.75281 -24.72029 12.32963 -7.33594 49.59628 -102.00787 13.0318 -1.9866 43.80723 -0.19472 -12.19347 -19.08274 -6.15688 -1.70807 -3.04222 46.58163 3.97383 8.90862 -25.00925 -6.19631 1.57474 2.98916
-0.00011 0.00016 -0.00012 176.37994 -40.42649 -2.87675 49.81236 1.93116 -1.38945 1.06593 1.22735 -0.92883 -18.52782 -8.45186 -8.3247 28.13844 90.08164 3.86114 1.7306 -25.64376 12.9604 -7.901 51.33279 -101.75112 13.05387 -1.91884 43.82235 -0.19059 -12.20086 -19.08208 -6.16148 -1.68407 -3.03258 46.56938 3.98217 8.91396 -25.00176 -6.1962 1.59019 2.99743
-0.00012 0.00021 -0.00024 176.22987 -40.42873 -2.893 49.80833 2.02912 -1.23392 0.86347 1.29696 -0.93202 -18.57657 -8.5032 -8.37004 28.01988 90.00095 3.82426 1.70952 -26.5047 13.53238 -8.43618 52.94118 -101.51944 13.08287 -1.85533 43.83633 -0.18733 -12.2146 -19.08204 -6.16562 -1.6624 -3.02363 46.55804 3.98859 8.90976 -24.99501 -6.19575 1.60607 3.00575
-0.00013 0.00025 -0.00036 176.08155 -40.4325 -2.9111 49.80421 2.11604 -1.07672 0.67515 1.37903 -0.9311 -18.6198 -8.54453 -8.40771 27.92052 89.91813 3.77968 1.68856 -27.27145 14.0102 -8.97289 54.46308 -101.25772 13.07318 -1.79383 43.85216 -0.1811 -12.21292 -19.08084 -6.17009 -1.63877 -3.01424 46.54826 3.9958 8.9054 -24.98875 -6.19503 1.6217 3.01392
-0.00014 0.0003 -0.00049 175.92554 -40.43304 -2.92493 49.80099 2.22971 -0.917 0.4487 1.43506 -0.93901 -18.67992 -8.61226 -8.46241 27.77775 89.84027 3.75051 1.66702 -28.28016 14.72858 -9.51832 56.2387 -101.04595 13.1445 -1.72521 43.86442 -0.18059 -12.23936 -19.08199 -6.17405 -1.61836 -3.00555 46.53462 4.00148 8.90295 -24.98114 -6.19512 1.63802 3.02255
-0.00018 0.00037 -0.00067 175.74654 -40.42644 -2.92898 49.8031 2.41501 -0.75783 0.12411 1.42064 -0.97015 -18.77603 -8.74174 -8.57667 27.51748 89.75495 3.75297 1.64301 -29.89589 16.0461 -10.10216 58.665 -101.00815 13.44255 -1.64353 43.86786 -0.19842 -12.36155 -19.08874 -6.17649 -1.60772 -2.99872 46.51125 4.01001 8.93541 -24.96941 -6.19706 1.65266 3.03089
-0.00023 0.00045 -0.00087 175.56209 -40.41645 -2.9283 49.80539 2.62606 -0.59683 -0.23653 1.37942 -1.01025 -18.88845 -8.89798 -8.70699 27.21258 89.68298 3.7747 1.61943 -31.7518 17.60394 -10.68684 61.32995 -101.01435 13.8204 -1.55382 43.86759 -0.22151 -12.50878 -19.09805 -6.17843 -1.60054 -2.99273 46.4843 4.01573 8.96389 -24.95663 -6.19987 1.66855 3.03991
-0.00028 0.00053 -0.00107 175.38443 -40.40659 -2.9286 49.80482 2.82422 -0.43594 -0.57957 1.34945 -1.04692 -18.99814 -9.04626 -8.8167 26.93124 89.61621 3.79512 1.59584 -33.50727 19.0651 -11.25043 63.86347 -100.98608 14.15953 -1.46576 43.86791 -0.24044 -12.63242 -19.10691 -6.18048 -1.59195 -2.98666 46.4586 4.01695 8.96939 -24.9448 -6.20238 1.68653 3.04974
-0.00033 0.0006 -0.00125 175.1869 -40.40192 -2.93412 49.81553 3.02872 -0.27726 -0.93093 1.32409 -1.08114 -19.09265 -9.17848 -8.9734 26.64275 89.48717 3.77987 1.56877 -35.23094 20.47752 -11.90261 66.50128 -101.02812 14.51175 -1.38782 43.87221 -0.26673 -12.80639 -19.11281 -6.18282 -1.58257 -2.97934 46.43348 4.04116 9.07454 -24.93057 -6.20439 1.6939 3.05511
-0.00037 0.00068 -0.00146 175.03087 -40.38658 -2.92729 49.8035 3.22498 -0.11382 -1.27072 1.28195 -1.12229 -19.21755 -9.34905 -9.04795 26.34968 89.50909 3.8485 1.55233 -37.07735 22.04877 -12.37109 68.97964 -100.92144 14.85243 -1.28449 43.86818 -0.27909 -12.88295 -19.12542 -6.1847 -1.57563 -2.97476 46.40748 4.01869 8.97817 -24.92156 -6.2078 1.72289 3.0696
-0.00038 0.00073 -0.00176 174.98159 -40.33412 -2.89046 49.72178 3.40026 0.06162 -1.58942 1.20702 -1.18308 -19.46489 -9.62951 -8.78491 26.13498 89.78476 4.09888 1.537 -39.18322 23.97438 -12.32063 70.90859 -100.51154 15.16506 -1.13539 43.83438 -0.25047 -12.67178 -19.15661 -6.18312 -1.57536 -2.97809 46.3698 3.85105 8.26266 -24.92333 -6.21358 1.81795 3.11203
-0.00039 0.00078 -0.00209 174.97626 -40.2724 -2.84081 49.6182 3.56494 0.2418 -1.89158 1.115 -1.25008 -19.73503 -9.94585 -8.45611 25.90397 90.23714 4.43904 1.53728 -41.40457 26.05344 -12.08828 72.67491 -99.93209 15.45655 -0.95739 43.79354 -0.2079 -12.36405 -19.19434 -6.18147 -1.57732 -2.98406 46.33299 3.63944 7.35549 -24.931 -6.22095 1.93351 3.16307
